<?xml version="1.0" standalone="no"?>
<!DOCTYPE svg PUBLIC "-//W3C//DTD SVG 20010904//EN"
 "http://www.w3.org/TR/2001/REC-SVG-20010904/DTD/svg10.dtd">
<svg version="1.0" xmlns="http://www.w3.org/2000/svg"
 width="243.000000pt" height="243.000000pt" viewBox="0 0 243.000000 243.000000"
 preserveAspectRatio="xMidYMid meet">
<metadata>
Created by potrace 1.11, written by Peter Selinger 2001-2013
</metadata>
<g transform="translate(0.000000,243.000000) scale(0.100000,-0.100000)"
fill="#000000" stroke="none">
<path d="M407 1878 c-126 -190 -187 -409 -187 -673 0 -679 426 -1086 1110
-1062 175 6 239 21 380 90 89 43 117 63 185 131 109 110 175 248 175 368 l0
38 -49 0 -48 0 -11 -67 c-55 -328 -456 -552 -757 -423 -173 74 -276 312 -292
671 l-6 146 174 7 c304 12 703 54 957 101 l91 17 16 46 c11 29 19 93 22 167 5
102 2 134 -16 205 -23 96 -84 226 -131 283 l-31 37 -271 0 -270 0 6 -22 c39
-138 41 -154 40 -373 -1 -162 -5 -233 -16 -270 l-14 -50 -90 -12 c-49 -6 -174
-15 -278 -19 l-189 -7 6 199 c6 203 24 352 57 482 l18 72 -263 0 -264 0 -54
-82z"/>
</g>
</svg>
