<?xml version="1.0" standalone="no"?>
<!DOCTYPE svg PUBLIC "-//W3C//DTD SVG 20010904//EN"
 "http://www.w3.org/TR/2001/REC-SVG-20010904/DTD/svg10.dtd">
<svg version="1.0" xmlns="http://www.w3.org/2000/svg"
 width="3547.000000pt" height="3547.000000pt" viewBox="0 0 3547.000000 3547.000000"
 preserveAspectRatio="xMidYMid meet">
<metadata>
Created by potrace 1.11, written by Peter Selinger 2001-2013
</metadata>
<g transform="translate(0.000000,3547.000000) scale(0.100000,-0.100000)"
fill="#000000" stroke="none">
<path d="M11305 21423 c-493 -7 -956 -48 -1249 -109 -508 -107 -734 -307 -831
-739 -26 -111 -31 -442 -11 -584 51 -342 197 -560 446 -662 296 -121 854 -194
1790 -234 646 -27 794 -36 915 -51 281 -37 388 -90 449 -224 67 -146 57 -440
-20 -594 -70 -141 -190 -197 -504 -237 -137 -17 -986 -24 -1234 -10 -416 24
-561 56 -646 141 -79 79 -117 199 -128 402 l-7 133 -549 0 -549 0 2 -135 c6
-384 82 -614 265 -795 117 -115 211 -166 421 -227 414 -119 1253 -172 2195
-138 723 27 1176 94 1435 215 252 116 400 348 461 720 25 149 25 471 1 601
-52 283 -188 486 -391 584 -286 137 -819 211 -1796 250 -602 24 -1011 58
-1165 96 -121 31 -181 87 -227 215 -20 57 -22 83 -23 234 l0 170 34 73 c38 81
99 145 171 180 169 81 578 119 1190 109 577 -10 737 -39 843 -157 25 -28 56
-78 70 -113 27 -66 57 -196 57 -244 0 -15 3 -38 6 -50 l6 -23 549 0 549 0 0
149 c0 342 -92 574 -290 734 -193 157 -528 245 -1113 293 -163 13 -857 37
-932 32 -16 -2 -102 -4 -190 -5z"/>
<path d="M27290 21423 c-539 -7 -1074 -50 -1409 -114 -563 -107 -825 -268
-996 -614 -139 -281 -180 -584 -164 -1197 21 -801 112 -1314 287 -1610 101
-172 236 -267 500 -352 363 -116 833 -170 1602 -182 962 -16 1713 55 2079 196
369 143 544 490 553 1095 l3 170 -567 3 -567 2 2 -157 c2 -175 -9 -242 -53
-340 -91 -202 -273 -271 -799 -304 -252 -16 -950 -7 -1129 15 -355 43 -531
106 -601 215 -96 149 -147 478 -159 1026 -17 742 29 1102 165 1283 106 142
529 212 1283 212 524 0 880 -39 1020 -110 95 -49 167 -155 195 -288 8 -37 17
-122 21 -189 l7 -123 565 0 565 0 -6 163 c-11 272 -50 446 -139 627 -46 92
-64 117 -148 200 -74 74 -113 105 -175 137 -205 105 -480 169 -897 208 -149
14 -757 38 -833 33 -16 -2 -109 -4 -205 -5z"/>
<path d="M32525 21420 c-902 -23 -1524 -130 -1820 -315 -282 -176 -439 -549
-511 -1217 -21 -197 -30 -779 -15 -978 54 -710 242 -1110 606 -1290 357 -176
1038 -270 1965 -270 1074 0 1853 111 2185 311 300 180 465 587 525 1294 15
186 13 795 -5 976 -54 569 -196 930 -441 1127 -337 270 -1190 394 -2489 362z
m770 -661 c455 -22 723 -77 827 -169 127 -111 186 -410 204 -1020 15 -539 -38
-1053 -130 -1245 -46 -97 -85 -139 -170 -180 -214 -103 -592 -141 -1309 -132
-746 9 -1072 61 -1201 193 -79 80 -138 250 -171 494 -23 167 -32 719 -16 1016
28 523 92 792 208 880 112 85 395 142 808 163 239 12 713 12 950 0z"/>
<path d="M0 19390 l0 -2000 2050 0 2050 0 -2 318 -3 317 -1482 3 -1483 2 0
565 0 565 1395 0 1395 0 0 280 0 280 -1395 0 -1395 0 0 515 0 515 1470 0 1470
0 0 320 0 320 -2035 0 -2035 0 0 -2000z"/>
<path d="M4930 19390 l0 -2000 1960 0 1960 0 0 340 0 340 -1390 0 -1390 0 0
1660 0 1660 -570 0 -570 0 0 -2000z"/>
<path d="M14760 19390 l0 -2000 565 0 565 0 0 2000 0 2000 -565 0 -565 0 0
-2000z"/>
<path d="M16940 19390 l0 -2000 565 0 566 0 -4 1298 -3 1297 -27 330 c-14 182
-28 349 -30 373 -4 35 -2 42 13 42 12 0 62 -93 190 -357 95 -197 211 -430 257
-518 46 -88 389 -677 762 -1310 l678 -1150 519 -2 519 -3 670 1157 c687 1186
780 1357 1060 1951 92 194 124 252 138 252 16 0 18 -6 13 -52 -13 -112 -46
-614 -56 -828 -5 -124 -10 -732 -10 -1352 l0 -1128 570 0 570 0 0 2000 0 2000
-942 0 -943 0 -572 -1018 c-314 -559 -593 -1060 -619 -1112 -56 -113 -305
-643 -354 -752 -25 -56 -40 -78 -53 -78 -14 0 -43 50 -118 208 -336 695 -327
678 -1271 2322 l-244 425 -922 3 -922 2 0 -2000z"/>
<path d="M330 16410 l0 -40 17545 0 17545 0 0 40 0 40 -17545 0 -17545 0 0
-40z"/>
<path d="M6054 15800 c-200 -28 -382 -125 -573 -306 -105 -100 -127 -127 -115
-145 4 -6 49 33 108 94 115 118 198 183 306 237 211 106 448 124 606 45 64
-31 144 -100 144 -124 0 -5 -30 -16 -67 -26 -217 -54 -444 -190 -637 -381
-211 -209 -316 -412 -316 -611 0 -109 21 -165 85 -230 61 -60 122 -83 225 -83
224 0 462 146 652 400 203 271 263 600 156 849 l-19 44 128 -6 c166 -8 362
-42 653 -114 l235 -59 -76 -42 c-247 -136 -504 -383 -730 -701 l-75 -106 -70
-6 c-106 -8 -216 -65 -249 -129 -37 -71 -4 -81 40 -12 37 58 106 98 188 107
32 4 60 5 63 3 6 -6 -200 -308 -282 -415 -89 -114 -252 -282 -334 -344 -81
-61 -214 -131 -300 -157 -145 -44 -331 -51 -459 -17 -123 32 -233 111 -277
197 -20 40 -24 61 -22 115 3 75 22 95 32 34 7 -45 35 -71 79 -71 122 0 165
197 50 229 -77 22 -166 -31 -193 -115 -17 -51 -8 -160 18 -209 63 -123 230
-213 433 -234 315 -32 656 77 961 306 160 121 235 216 398 503 46 80 84 146
85 148 1 1 39 -4 84 -11 l83 -12 -41 -79 c-57 -111 -112 -180 -160 -202 -44
-21 -54 -44 -18 -44 81 0 206 112 262 234 l33 73 64 7 c143 15 227 61 249 134
15 51 -1 89 -46 107 -103 44 -230 -17 -303 -145 -14 -25 -26 -46 -27 -48 -3
-3 -148 20 -154 24 -12 10 196 349 285 466 124 163 249 279 385 359 l70 40
142 -25 c254 -46 373 -59 567 -59 151 -1 203 3 282 20 120 26 210 66 248 110
109 124 -102 224 -440 210 -189 -8 -357 -41 -543 -107 l-84 -30 -279 65 c-308
71 -365 81 -504 90 -101 7 -305 -7 -407 -28 l-61 -13 -49 51 c-58 62 -125 103
-207 125 -78 22 -203 31 -282 20z m2701 -230 c87 -22 117 -38 141 -74 22 -35
6 -59 -58 -89 -106 -50 -256 -56 -508 -21 -99 14 -409 79 -417 88 -7 6 98 43
188 66 137 35 246 48 415 49 131 1 176 -3 239 -19z m-2158 -110 c25 -83 20
-231 -11 -354 -77 -300 -334 -629 -585 -750 -74 -35 -95 -40 -171 -44 -101 -5
-146 7 -196 50 -62 54 -87 111 -92 202 -10 183 81 376 268 570 204 212 432
349 659 396 101 21 101 21 128 -70z m815 -817 c11 -9 18 -30 18 -51 0 -45 -44
-86 -113 -107 -50 -15 -147 -21 -147 -9 0 25 71 132 104 156 45 33 108 38 138
11z"/>
<path d="M17776 14767 l-274 -458 1 52 c1 45 -3 55 -27 75 -55 48 -180 26
-345 -62 -253 -134 -411 -288 -461 -452 -47 -151 -1 -311 104 -362 111 -53
214 7 386 224 46 58 85 104 87 103 1 -2 -4 -25 -12 -52 -44 -145 18 -282 134
-293 64 -6 114 18 199 94 52 47 95 96 241 276 3 4 5 -26 3 -67 -4 -94 16 -158
68 -218 57 -64 124 -91 215 -85 124 8 251 83 406 239 101 101 261 298 253 311
-9 13 -19 3 -101 -100 -252 -318 -478 -465 -637 -412 -101 33 -102 186 -4 349
l33 54 170 42 c195 49 308 90 383 140 165 112 140 295 -41 295 -150 0 -437
-143 -591 -294 -35 -34 -80 -91 -100 -126 -94 -160 -309 -406 -394 -449 -46
-23 -101 -28 -120 -9 -7 7 -12 33 -12 59 0 88 85 237 613 1082 164 263 300
484 303 490 3 9 -25 12 -101 12 l-105 1 -274 -459z m815 -337 c14 -8 19 -21
19 -49 0 -108 -186 -249 -444 -337 -97 -33 -103 -32 -66 19 99 139 261 291
364 342 73 37 95 41 127 25z m-1138 -15 c59 -59 2 -194 -199 -471 -108 -149
-249 -305 -313 -346 -56 -35 -111 -38 -142 -7 -19 19 -21 30 -17 104 4 74 9
92 51 176 93 187 326 458 452 526 67 36 142 44 168 18z"/>
<path d="M24934 14964 c-90 -90 -214 -177 -365 -254 -94 -48 -124 -70 -98 -70
22 0 240 91 354 148 113 56 265 151 265 165 0 13 -60 97 -68 95 -4 -1 -44 -38
-88 -84z"/>
<path d="M23355 14830 c-11 -19 -115 -190 -230 -379 -367 -605 -594 -881 -725
-881 -46 0 -60 15 -60 62 0 50 31 111 143 277 99 148 129 208 146 292 29 137
-50 259 -166 259 -80 0 -211 -107 -352 -285 -35 -44 -65 -82 -68 -85 -2 -2 6
18 18 45 12 29 23 79 26 120 4 59 1 77 -19 115 -13 25 -38 55 -57 67 -99 66
-212 -4 -399 -247 -84 -109 -88 -113 -63 -62 39 77 54 157 41 214 -17 68 -67
118 -118 118 -80 -1 -152 -70 -361 -347 -51 -67 -113 -140 -139 -163 -71 -60
-158 -104 -212 -104 -82 -1 -85 4 -33 81 110 163 166 330 144 428 -16 73 -45
98 -120 103 -98 7 -218 -38 -366 -138 -119 -80 -194 -150 -293 -275 -207 -258
-342 -388 -467 -447 -46 -22 -74 -28 -123 -28 -59 0 -67 3 -96 33 -88 87 -33
302 142 547 82 116 194 230 254 258 61 30 131 30 152 0 41 -58 -1 -137 -104
-193 -76 -42 -135 -99 -146 -140 -9 -36 14 -84 42 -91 49 -12 90 5 141 59 103
109 143 251 101 360 -32 84 -162 75 -350 -25 -166 -89 -304 -224 -375 -366
-45 -90 -56 -198 -29 -280 22 -66 87 -139 151 -168 160 -75 341 22 609 326 44
50 55 58 46 35 -17 -43 -17 -152 -1 -208 17 -58 81 -133 136 -158 125 -57 285
19 430 204 54 68 63 75 85 69 14 -4 48 -7 75 -6 114 2 236 98 397 312 57 75
137 172 179 214 63 64 81 78 107 78 93 0 33 -140 -258 -600 -94 -148 -170
-271 -170 -272 0 -2 46 -3 103 -3 l103 0 74 129 c145 251 310 484 440 620 90
95 134 126 181 126 43 0 59 -19 59 -68 0 -57 -106 -251 -341 -622 -58 -91
-108 -169 -111 -175 -4 -6 31 -9 99 -8 l104 1 83 134 c247 401 449 654 573
717 76 38 143 22 143 -35 0 -39 -54 -137 -166 -300 -57 -84 -112 -174 -123
-202 -69 -175 0 -332 146 -332 71 0 185 86 313 235 53 63 78 106 -328 -562
-287 -471 -327 -542 -304 -535 15 4 61 6 104 5 l76 -1 297 496 c164 274 301
500 304 504 3 4 6 -17 6 -47 0 -71 16 -87 92 -93 101 -7 237 48 433 177 243
159 362 371 316 558 -27 110 -90 173 -180 181 -93 8 -152 -34 -314 -223 -56
-65 -60 -72 166 293 106 173 195 319 198 325 3 9 -23 12 -92 12 l-97 0 -22
-35z m-2569 -405 c47 -20 68 -70 60 -146 -8 -81 -13 -92 -37 -75 -29 20 -68 7
-114 -38 -84 -84 -114 -191 -75 -270 l22 -46 -52 -65 c-104 -130 -210 -203
-310 -212 -56 -5 -61 -4 -89 25 -27 26 -31 38 -31 82 0 76 17 134 70 245 105
219 310 453 437 500 50 18 76 18 119 0z m2774 -22 c19 -24 22 -37 18 -99 -4
-59 -13 -88 -51 -167 -93 -190 -331 -465 -463 -535 -70 -36 -136 -43 -166 -15
-31 28 -24 97 20 189 97 198 372 549 491 626 62 39 121 39 151 1z"/>
<path d="M11955 14818 c-70 -38 -115 -119 -96 -171 40 -104 221 -15 221 108 0
28 -6 47 -18 58 -21 19 -77 22 -107 5z"/>
<path d="M24923 14618 l-94 -158 -85 0 c-67 0 -84 -3 -84 -15 0 -11 17 -15 75
-17 l75 -3 -103 -171 c-57 -94 -134 -211 -172 -260 -90 -118 -286 -310 -359
-353 -113 -67 -217 -87 -291 -57 -90 38 -87 189 7 345 l33 54 170 42 c195 49
308 90 383 140 165 112 140 295 -41 295 -154 0 -443 -146 -599 -303 -96 -97
-140 -189 -146 -301 -5 -104 13 -166 68 -229 57 -64 124 -91 215 -85 129 8
252 83 422 256 l102 104 -19 -58 c-22 -63 -26 -147 -9 -191 5 -15 22 -41 37
-57 55 -59 134 -71 211 -34 57 27 190 154 273 260 l63 80 5 -84 c9 -133 60
-213 169 -261 69 -30 170 -21 264 26 169 84 330 249 603 616 96 129 182 218
219 227 41 10 60 -7 58 -49 -4 -71 -75 -202 -320 -589 -78 -126 -143 -229
-143 -230 0 -2 46 -3 102 -3 l102 1 77 133 c173 295 324 505 450 627 86 83
141 114 202 114 51 0 67 -13 67 -56 0 -42 -38 -113 -170 -315 -61 -92 -117
-187 -126 -211 -9 -23 -17 -73 -17 -109 -1 -58 3 -74 28 -114 17 -27 46 -56
65 -66 103 -56 215 9 400 231 51 61 93 110 94 110 0 0 1 -33 1 -73 1 -210 195
-342 387 -263 88 36 174 104 304 239 l119 124 0 -96 c0 -89 2 -100 31 -151
108 -192 333 -184 572 20 73 63 82 68 82 47 0 -36 20 -88 48 -126 90 -120 359
-106 539 29 66 51 109 113 128 187 19 74 11 123 -44 260 -53 133 -71 207 -71
288 l0 67 85 90 c92 97 130 157 119 190 -5 16 -12 19 -37 14 -61 -12 -127 -98
-167 -215 -17 -52 -46 -94 -162 -238 -96 -118 -146 -172 -156 -168 -29 11 -95
-17 -143 -62 -61 -57 -102 -121 -125 -197 -16 -49 -29 -68 -90 -125 -154 -143
-318 -203 -420 -155 -89 42 -86 180 8 340 l34 59 115 25 c381 86 549 186 549
328 0 74 -61 122 -154 122 -102 0 -296 -79 -449 -182 -83 -56 -190 -160 -229
-222 -78 -125 -297 -354 -403 -421 -105 -67 -208 -85 -271 -46 -65 40 -71 163
-14 309 66 171 287 455 397 511 51 25 125 28 147 5 22 -21 20 -83 -4 -122 -11
-18 -41 -45 -67 -61 -118 -72 -136 -86 -154 -115 -55 -90 17 -169 110 -121 79
40 162 188 169 301 8 122 -34 170 -141 162 -180 -15 -472 -220 -577 -407 -91
-161 -311 -416 -397 -460 -54 -27 -109 -28 -123 -2 -26 49 1 115 120 301 125
195 170 293 170 369 0 155 -124 242 -258 181 -56 -25 -154 -120 -250 -240 -96
-120 -98 -123 -74 -75 34 68 55 153 47 193 -16 85 -69 142 -133 142 -54 0
-151 -90 -289 -267 -308 -397 -465 -549 -627 -605 -62 -21 -135 -23 -181 -4
-90 38 -87 189 7 345 l33 54 170 42 c301 75 431 140 476 240 51 111 -9 195
-138 195 -111 0 -336 -98 -491 -212 -78 -58 -165 -150 -197 -210 -71 -132
-283 -381 -374 -440 -58 -36 -122 -39 -145 -6 -39 55 -19 103 214 502 l195
335 109 3 c76 2 111 7 114 16 3 9 -21 12 -97 12 -56 0 -101 3 -101 6 0 3 35
65 78 137 44 73 84 141 89 152 11 19 8 20 -84 20 l-95 0 -95 -157z m-452 -188
c14 -8 19 -21 19 -49 0 -87 -124 -199 -314 -286 -84 -38 -202 -78 -216 -73
-17 5 109 156 213 254 67 65 117 103 168 128 76 38 98 42 130 26z m1379 -10
c22 -22 20 -50 -7 -102 -45 -90 -236 -211 -436 -277 -37 -13 -72 -21 -77 -19
-17 5 109 156 213 254 67 65 117 103 168 128 82 41 111 44 139 16z m2935 0
c13 -14 16 -28 11 -52 -15 -76 -107 -163 -259 -243 -87 -46 -252 -108 -274
-103 -16 4 72 116 165 211 162 166 307 242 357 187z m470 -218 c0 -239 -5
-264 -62 -374 -120 -230 -354 -323 -450 -179 -63 93 2 228 126 262 96 26 147
63 157 116 4 22 1 41 -10 57 -15 24 -13 27 110 180 70 86 127 156 128 156 0 0
1 -98 1 -218z"/>
<path d="M12594 14741 c-47 -20 -112 -119 -148 -226 -21 -65 -290 -400 -313
-391 -32 13 -96 -16 -149 -66 -61 -57 -119 -162 -130 -233 -5 -36 -18 -57 -65
-109 -108 -118 -209 -168 -270 -136 -28 15 -26 94 5 162 12 29 111 198 220
376 108 177 196 323 196 325 0 1 -46 2 -103 2 l-104 0 -104 -179 c-199 -341
-417 -614 -540 -676 -50 -26 -105 -26 -119 -1 -26 49 1 115 120 301 125 195
170 293 170 369 0 155 -124 242 -258 181 -56 -25 -154 -120 -250 -240 -96
-120 -98 -123 -74 -75 34 68 55 153 47 193 -15 83 -71 142 -133 142 -54 0
-151 -90 -296 -275 -180 -231 -232 -284 -318 -320 -97 -40 -158 8 -158 124 0
101 10 115 136 196 63 41 142 101 175 134 56 54 60 61 57 97 -3 37 -5 39 -40
42 -21 2 -53 -4 -73 -14 -55 -26 -167 -153 -213 -241 -27 -52 -63 -100 -107
-143 l-66 -65 40 80 c110 218 83 385 -64 385 -72 0 -159 -91 -425 -445 -259
-345 -360 -445 -450 -445 -48 0 -60 15 -60 71 0 63 79 218 279 544 85 138 155
252 156 255 2 3 -43 5 -99 5 l-102 0 -99 -169 c-106 -179 -270 -434 -324 -501
-59 -73 -156 -167 -193 -186 -51 -26 -93 -25 -112 3 -20 28 -20 51 -1 114 15
52 35 88 277 484 l155 255 -102 0 -101 0 -99 -169 c-55 -93 -123 -199 -152
-236 -105 -135 -263 -223 -345 -191 l-28 10 54 83 c97 150 136 255 136 365 0
110 -40 153 -143 153 -174 0 -507 -218 -632 -415 -113 -178 -93 -374 47 -471
37 -26 50 -29 117 -29 59 0 86 5 122 22 72 36 165 122 259 240 25 31 26 32 75
21 76 -16 161 16 263 98 l32 27 -32 -69 c-52 -112 -51 -217 4 -280 74 -84 159
-87 254 -8 38 30 139 145 216 243 l26 34 -19 -54 c-10 -30 -18 -68 -19 -85 0
-71 49 -156 106 -180 85 -36 169 0 294 125 86 87 283 328 310 382 10 19 47 73
81 120 132 179 206 249 260 249 85 0 28 -131 -261 -601 -90 -145 -164 -266
-166 -269 -1 -3 43 -5 99 -5 l101 2 30 49 c170 281 241 379 323 448 l32 27
-10 -33 c-24 -85 -2 -176 50 -202 82 -43 190 2 307 127 42 45 94 108 116 140
71 104 200 258 241 288 67 48 116 32 102 -33 -18 -83 -90 -214 -322 -580 -79
-125 -143 -228 -143 -230 0 -2 46 -3 102 -3 l102 1 77 133 c100 170 235 374
314 476 80 102 198 216 252 244 55 28 128 29 143 2 27 -51 5 -100 -160 -352
-61 -92 -117 -187 -126 -211 -9 -23 -17 -73 -17 -109 -1 -58 3 -74 28 -114 35
-56 83 -85 140 -85 91 0 196 88 384 320 l20 25 -20 -63 c-24 -79 -24 -125 0
-178 27 -59 80 -96 145 -102 71 -6 135 27 236 124 l79 76 10 -39 c29 -105 114
-163 240 -163 139 0 269 46 360 127 l45 39 25 -50 c39 -76 99 -110 205 -114
152 -7 293 45 394 145 111 111 123 204 49 399 -65 173 -77 219 -77 297 l0 69
88 93 c125 130 155 202 83 198 -22 -1 -44 -12 -67 -34 -37 -36 -96 -143 -113
-204 -8 -27 -55 -93 -149 -209 -135 -165 -140 -170 -179 -172 -55 -3 -92 -24
-149 -87 l-49 -54 -17 46 c-9 25 -33 91 -53 146 -28 76 -38 120 -42 187 l-6
87 80 83 c95 100 136 158 131 190 -3 25 -29 33 -64 19z m-4656 -312 c17 -6 38
-22 48 -36 18 -29 23 -105 11 -166 -7 -35 -9 -36 -28 -24 -46 32 -129 -26
-178 -125 -38 -74 -41 -133 -10 -188 l22 -38 -59 -72 c-100 -124 -203 -196
-294 -207 -94 -11 -130 23 -130 123 0 142 132 389 309 576 132 141 223 187
309 157z m4487 -237 c0 -216 -2 -230 -24 -287 -94 -236 -295 -379 -431 -306
-80 42 -103 135 -55 217 29 50 83 84 166 108 94 27 150 115 104 166 -13 14 -1
32 113 173 69 86 126 157 127 157 0 0 0 -102 0 -228z m650 0 c-1 -211 -2 -231
-23 -283 -53 -132 -151 -255 -240 -300 -173 -86 -330 41 -248 201 28 55 69 84
157 110 106 32 157 106 114 167 -14 19 -7 29 112 177 70 86 127 156 128 156 0
0 0 -102 0 -228z"/>
<path d="M13895 14437 c-217 -73 -456 -239 -546 -379 -113 -176 -82 -397 69
-485 41 -25 57 -28 132 -28 75 0 93 4 155 33 95 45 199 126 306 241 l90 96
-21 -50 c-27 -63 -36 -150 -20 -199 24 -74 88 -126 155 -126 81 0 144 49 288
225 50 61 87 101 83 90 -45 -113 -44 -162 3 -237 51 -80 131 -98 224 -52 93
47 330 309 455 504 117 181 257 343 307 356 80 20 81 -41 3 -194 -42 -82 -302
-516 -394 -657 -13 -20 -11 -20 91 -20 l103 0 52 90 c99 170 198 310 266 375
37 36 64 56 60 45 -31 -87 -9 -193 47 -221 37 -20 106 -15 161 11 74 35 249
216 229 236 -7 7 -23 -5 -49 -38 -22 -26 -64 -73 -94 -103 -165 -166 -314
-108 -270 103 l11 57 116 75 c126 83 214 160 233 205 29 70 -47 95 -131 42
-75 -49 -169 -166 -223 -277 -11 -22 -47 -66 -80 -97 l-61 -57 43 88 c75 154
81 274 17 338 -26 26 -41 33 -72 33 -88 0 -175 -88 -448 -455 -246 -330 -355
-435 -448 -435 -47 0 -61 20 -55 79 7 71 72 196 267 515 94 154 171 280 171
280 0 1 -46 0 -102 0 l-103 -2 -108 -184 c-277 -469 -457 -688 -567 -688 -49
0 -66 21 -63 80 3 68 22 105 223 435 100 165 190 314 200 330 l19 30 -102 -1
-101 -1 -107 -179 c-247 -412 -526 -675 -733 -691 -110 -9 -166 37 -166 136 0
58 33 153 79 227 l31 51 107 22 c136 30 311 85 386 122 156 79 212 200 133
286 -33 36 -37 38 -108 40 -56 2 -90 -2 -143 -20z m180 -14 c12 -12 15 -26 11
-51 -13 -80 -100 -164 -254 -245 -84 -44 -248 -107 -278 -107 -21 0 59 103
164 212 153 159 307 242 357 191z"/>
</g>
</svg>
